<svg xmlns="http://www.w3.org/2000/svg" xmlns:xlink="http://www.w3.org/1999/xlink" viewBox="0 0 2560 1600"><defs><clipPath id="clip-path"><rect x="0.4" width="2560" height="1327.46" fill="none"/></clipPath><linearGradient id="Fade_to_White_1" x1="2561.32" y1="496" x2="2561.32" y2="1712.11" gradientUnits="userSpaceOnUse"><stop offset="0" stop-color="#fdfdfe" stop-opacity="0"/><stop offset="0.16" stop-color="#fdfdfe" stop-opacity="0.01"/><stop offset="0.29" stop-color="#fdfdfe" stop-opacity="0.05"/><stop offset="0.41" stop-color="#fdfdfe" stop-opacity="0.12"/><stop offset="0.53" stop-color="#fdfdfe" stop-opacity="0.21"/><stop offset="0.63" stop-color="#fdfdfe" stop-opacity="0.33"/><stop offset="0.74" stop-color="#fdfdfe" stop-opacity="0.48"/><stop offset="0.84" stop-color="#fdfdfe" stop-opacity="0.66"/><stop offset="0.94" stop-color="#fdfdfe" stop-opacity="0.86"/><stop offset="1" stop-color="#fdfdfe"/></linearGradient><linearGradient id="Fade_to_White_1-2" x1="320.57" y1="492" x2="320.57" y2="1710.57" xlink:href="#Fade_to_White_1"/><linearGradient id="Fade_to_White_1-3" x1="1280.4" y1="656" x2="1280.4" y2="1827.31" xlink:href="#Fade_to_White_1"/><linearGradient id="Fade_to_White_1-4" x1="1280.4" y1="1562" x2="1280.4" y2="1281.99" xlink:href="#Fade_to_White_1"/></defs><title>REVISE_BARONG_EEZY</title><g style="isolation:isolate"><g id="Layer_1" data-name="Layer 1"><g clip-path="url(#clip-path)"><rect x="0.4" width="2560" height="1327.46" fill="#90a6b4"/><path d="M2372.3,587.6l-692.2,739.7H3442.6L2750.3,587.6C2648,478.4,2474.6,478.4,2372.3,587.6Z" fill="#7e96a3"/><path d="M2372.3,587.6l-692.2,739.7H3442.6L2750.3,587.6C2648,478.4,2474.6,478.4,2372.3,587.6Z" fill="url(#Fade_to_White_1)"/><path d="M172.1,548.5-937,1325H1578.1L469,548.5A258.8,258.8,0,0,0,172.1,548.5Z" fill="#6a8591"/><path d="M172.1,548.5-937,1325H1578.1L469,548.5A258.8,258.8,0,0,0,172.1,548.5Z" fill="url(#Fade_to_White_1-2)"/><path d="M1437.9,292.4a223.4,223.4,0,0,0-20.4-16.7c-40.4,17.3-86.1,27.1-134.6,27.1s-96.6-10.3-137.7-28.5a223.4,223.4,0,0,0-22.3,18L.4,1327.3h2560Z" fill="#6a8f88"/><path d="M1437.9,292.4a223.4,223.4,0,0,0-20.4-16.7c-40.4,17.3-86.1,27.1-134.6,27.1s-96.6-10.3-137.7-28.5a223.4,223.4,0,0,0-22.3,18L.4,1327.3h2560Z" fill="url(#Fade_to_White_1-3)"/><g id="_Group_" data-name="&lt;Group&gt;"><path id="_Path_" data-name="&lt;Path&gt;" d="M2535.4,1082.4h0a20.3,20.3,0,0,1-20.3-20.3h0a20.3,20.3,0,0,1,20.3-20.3h0a20.3,20.3,0,0,1,20.3,20.3h0A20.3,20.3,0,0,1,2535.4,1082.4Z" fill="#37b34a"/><path id="_Path_2" data-name="&lt;Path&gt;" d="M2555.6,1122.9h-60.8a20.3,20.3,0,0,0-20.3,20.3h0a20.3,20.3,0,0,0,20.3,20.3h81.1a20.3,20.3,0,0,0,20.3-20.3h0a20.3,20.3,0,0,0-20.3-20.3Z" fill="#009345"/><path id="_Path_3" data-name="&lt;Path&gt;" d="M2535.4,1082.4h-20.3a20.3,20.3,0,0,0-20.3,20.3h0a20.3,20.3,0,0,0,20.3,20.3h40.5a20.3,20.3,0,0,0,20.3-20.3h0a20.3,20.3,0,0,0-20.3-20.3Z" fill="#329e48"/><path id="_Path_4" data-name="&lt;Path&gt;" d="M2575.9,1163.4H2474.6a20.3,20.3,0,0,0-20.3,20.3h0a20.3,20.3,0,0,0,20.3,20.3h121.6a20.3,20.3,0,0,0,20.3-20.3h0a20.3,20.3,0,0,0-20.3-20.3Z" fill="#058040"/><path id="_Path_5" data-name="&lt;Path&gt;" d="M2596.2,1203.9H2454.3a20.3,20.3,0,0,0-20.3,20.3h0a20.3,20.3,0,0,0,20.3,20.3h162.1a20.3,20.3,0,0,0,20.3-20.3h0a20.3,20.3,0,0,0-20.3-20.3Z" fill="#096c37"/><rect id="_Path_6" data-name="&lt;Path&gt;" x="2509.4" y="1244.5" width="51.9" height="82.85" fill="#754c28"/><rect id="_Path_7" data-name="&lt;Path&gt;" x="2509.4" y="1244.5" width="37.9" height="82.85" fill="#8a5d3b"/></g><g id="_Group_2" data-name="&lt;Group&gt;"><path id="_Path_8" data-name="&lt;Path&gt;" d="M25.2,1136.8h0A20.3,20.3,0,0,1,5,1116.5H5a20.3,20.3,0,0,1,20.3-20.3h0a20.3,20.3,0,0,1,20.3,20.3h0A20.3,20.3,0,0,1,25.2,1136.8Z" fill="#37b34a"/><path id="_Path_9" data-name="&lt;Path&gt;" d="M45.5,1177.3H-15.3a20.3,20.3,0,0,0-20.3,20.3h0a20.3,20.3,0,0,0,20.3,20.3H65.7A20.3,20.3,0,0,0,86,1197.6h0a20.3,20.3,0,0,0-20.3-20.3Z" fill="#009345"/><path id="_Path_10" data-name="&lt;Path&gt;" d="M25.2,1136.8H5A20.3,20.3,0,0,0-15.3,1157h0A20.3,20.3,0,0,0,5,1177.3H45.5A20.3,20.3,0,0,0,65.7,1157h0a20.3,20.3,0,0,0-20.3-20.3Z" fill="#329e48"/><path id="_Path_11" data-name="&lt;Path&gt;" d="M65.7,1217.8H-35.6a20.3,20.3,0,0,0-20.3,20.3h0a20.3,20.3,0,0,0,20.3,20.3H86a20.3,20.3,0,0,0,20.3-20.3h0A20.3,20.3,0,0,0,86,1217.8Z" fill="#058040"/><path id="_Path_12" data-name="&lt;Path&gt;" d="M86,1258.3H-55.8a20.3,20.3,0,0,0-20.3,20.3h0a20.3,20.3,0,0,0,20.3,20.3H106.3a20.3,20.3,0,0,0,20.3-20.3h0a20.3,20.3,0,0,0-20.3-20.3Z" fill="#096c37"/><rect id="_Path_13" data-name="&lt;Path&gt;" x="-0.7" y="1298.9" width="51.9" height="28.6" fill="#754c28"/><rect id="_Path_14" data-name="&lt;Path&gt;" x="-0.7" y="1298.9" width="37.9" height="28.6" fill="#8a5d3b"/></g></g><path d="M676.7,683.8a53.4,53.4,0,0,0-66.4-51.6,46.2,46.2,0,0,0-89.6-21.8,46.2,46.2,0,0,0-71.8,22.3,53.4,53.4,0,0,0-68.3,51Z" fill="#a1bbc9"/><path d="M2473.9,665.7a53.4,53.4,0,0,0-66.4-51.6,46.2,46.2,0,0,0-89.6-21.8,46.2,46.2,0,0,0-71.8,22.3,53.4,53.4,0,0,0-68.3,51Z" fill="#a1bbc9"/><path d="M380.6,204.2a25.3,25.3,0,0,0-31.4-24.4,21.8,21.8,0,0,0-42.4-10.3,21.8,21.8,0,0,0-34,10.5,25.3,25.3,0,0,0-32.3,24.1Z" fill="#869ca8"/><path d="M2098.8,519.1a34.8,34.8,0,0,0-43.3-33.6,30.1,30.1,0,0,0-58.4-14.2,30.1,30.1,0,0,0-46.8,14.5,34.8,34.8,0,0,0-44.5,33.3Z" fill="#869ca8"/><path d="M1177.4,583.5a34.8,34.8,0,0,0-43.3-33.6,30.1,30.1,0,0,0-58.4-14.2,30.1,30.1,0,0,0-46.8,14.5,34.8,34.8,0,0,0-44.5,33.3Z" fill="#a1bbc9"/><path d="M2452.2,152.1a34.8,34.8,0,0,0-43.3-33.6,30.1,30.1,0,0,0-58.4-14.2,30.1,30.1,0,0,0-46.8,14.5,34.8,34.8,0,0,0-44.5,33.3Z" fill="#869ca8"/><path d="M904.8,314.2a49.5,49.5,0,0,0-61.5-47.8,42.8,42.8,0,0,0-83-20.2,42.7,42.7,0,0,0-66.5,20.6,49.4,49.4,0,0,0-63.2,47.3Z" fill="#869ca8"/><path id="_Path_15" data-name="&lt;Path&gt;" d="M120.7,1310.4h0a13.1,13.1,0,0,0-13.1,13.1,13.1,13.1,0,1,0-26.3,0,13.1,13.1,0,1,0-26.3,0v3.8h78.8v-3.8A13.1,13.1,0,0,0,120.7,1310.4Z" fill="#aad050"/><path id="_Path_16" data-name="&lt;Path&gt;" d="M2466.8,1301.7h0a19.9,19.9,0,0,0-19.9,19.9,19.9,19.9,0,0,0-39.7,0,19.9,19.9,0,1,0-39.7,0v5.7h119.2v-5.7A19.9,19.9,0,0,0,2466.8,1301.7Z" fill="#8bc53f"/><path id="_Path_17" data-name="&lt;Path&gt;" d="M2536.4,1310.4h0a13.1,13.1,0,0,0-13.1,13.1,13.1,13.1,0,1,0-26.3,0,13.1,13.1,0,0,0-26.3,0v3.8h78.8v-3.8A13.1,13.1,0,0,0,2536.4,1310.4Z" fill="#aad050"/><path id="_Path_18" data-name="&lt;Path&gt;" d="M2363,1310.4h0a13.1,13.1,0,0,0-13.1,13.1,13.1,13.1,0,1,0-26.3,0,13.1,13.1,0,0,0-26.3,0v3.8h78.8v-3.8A13.1,13.1,0,0,0,2363,1310.4Z" fill="#aad050"/><g id="_Group_3" data-name="&lt;Group&gt;"><path id="_Path_19" data-name="&lt;Path&gt;" d="M2285.4,1050.7h0a20.3,20.3,0,0,1-20.3-20.3h0a20.3,20.3,0,0,1,20.3-20.3h0a20.3,20.3,0,0,1,20.3,20.3h0A20.3,20.3,0,0,1,2285.4,1050.7Z" fill="#37b34a"/><path id="_Path_20" data-name="&lt;Path&gt;" d="M2305.6,1091.2h-60.8a20.3,20.3,0,0,0-20.3,20.3h0a20.3,20.3,0,0,0,20.3,20.3h81.1a20.3,20.3,0,0,0,20.3-20.3h0a20.3,20.3,0,0,0-20.3-20.3Z" fill="#009345"/><path id="_Path_21" data-name="&lt;Path&gt;" d="M2285.4,1050.7h-20.3a20.3,20.3,0,0,0-20.3,20.3h0a20.3,20.3,0,0,0,20.3,20.3h40.5a20.3,20.3,0,0,0,20.3-20.3h0a20.3,20.3,0,0,0-20.3-20.3Z" fill="#329e48"/><path id="_Path_22" data-name="&lt;Path&gt;" d="M2325.9,1131.7H2224.6a20.3,20.3,0,0,0-20.3,20.3h0a20.3,20.3,0,0,0,20.3,20.3h121.6a20.3,20.3,0,0,0,20.3-20.3h0a20.3,20.3,0,0,0-20.3-20.3Z" fill="#058040"/><path id="_Path_23" data-name="&lt;Path&gt;" d="M2346.2,1172.3H2204.3a20.3,20.3,0,0,0-20.3,20.3h0a20.3,20.3,0,0,0,20.3,20.3h162.1a20.3,20.3,0,0,0,20.3-20.3h0a20.3,20.3,0,0,0-20.3-20.3Z" fill="#096c37"/><rect id="_Path_24" data-name="&lt;Path&gt;" x="2259.4" y="1212.8" width="51.9" height="114.51" fill="#754c28"/><rect id="_Path_25" data-name="&lt;Path&gt;" x="2259.4" y="1212.8" width="37.9" height="114.51" fill="#8a5d3b"/></g><g id="_Group_4" data-name="&lt;Group&gt;"><path id="_Path_26" data-name="&lt;Path&gt;" d="M146.8,1050.7h0a20.3,20.3,0,0,1-20.3-20.3h0a20.3,20.3,0,0,1,20.3-20.3h0a20.3,20.3,0,0,1,20.3,20.3h0A20.3,20.3,0,0,1,146.8,1050.7Z" fill="#37b34a"/><path id="_Path_27" data-name="&lt;Path&gt;" d="M167.1,1091.2H106.3A20.3,20.3,0,0,0,86,1111.5h0a20.3,20.3,0,0,0,20.3,20.3h81.1a20.3,20.3,0,0,0,20.3-20.3h0a20.3,20.3,0,0,0-20.3-20.3Z" fill="#009345"/><path id="_Path_28" data-name="&lt;Path&gt;" d="M146.8,1050.7H126.5a20.3,20.3,0,0,0-20.3,20.3h0a20.3,20.3,0,0,0,20.3,20.3h40.5a20.3,20.3,0,0,0,20.3-20.3h0a20.3,20.3,0,0,0-20.3-20.3Z" fill="#329e48"/><path id="_Path_29" data-name="&lt;Path&gt;" d="M187.3,1131.7H86A20.3,20.3,0,0,0,65.7,1152h0A20.3,20.3,0,0,0,86,1172.3H207.6a20.3,20.3,0,0,0,20.3-20.3h0a20.3,20.3,0,0,0-20.3-20.3Z" fill="#058040"/><path id="_Path_30" data-name="&lt;Path&gt;" d="M207.6,1172.3H65.7a20.3,20.3,0,0,0-20.3,20.3h0a20.3,20.3,0,0,0,20.3,20.3H227.9a20.3,20.3,0,0,0,20.3-20.3h0a20.3,20.3,0,0,0-20.3-20.3Z" fill="#096c37"/><rect id="_Path_31" data-name="&lt;Path&gt;" x="120.8" y="1212.8" width="51.9" height="114.51" fill="#754c28"/><rect id="_Path_32" data-name="&lt;Path&gt;" x="120.8" y="1212.8" width="37.9" height="114.51" fill="#8a5d3b"/></g><g id="_Group_5" data-name="&lt;Group&gt;"><path id="_Path_33" data-name="&lt;Path&gt;" d="M401.6,1082.4h0a20.3,20.3,0,0,1-20.3-20.3h0a20.3,20.3,0,0,1,20.3-20.3h0a20.3,20.3,0,0,1,20.3,20.3h0A20.3,20.3,0,0,1,401.6,1082.4Z" fill="#37b34a"/><path id="_Path_34" data-name="&lt;Path&gt;" d="M421.9,1122.9H361.1a20.3,20.3,0,0,0-20.3,20.3h0a20.3,20.3,0,0,0,20.3,20.3h81.1a20.3,20.3,0,0,0,20.3-20.3h0a20.3,20.3,0,0,0-20.3-20.3Z" fill="#009345"/><path id="_Path_35" data-name="&lt;Path&gt;" d="M401.6,1082.4H381.4a20.3,20.3,0,0,0-20.3,20.3h0a20.3,20.3,0,0,0,20.3,20.3h40.5a20.3,20.3,0,0,0,20.3-20.3h0a20.3,20.3,0,0,0-20.3-20.3Z" fill="#329e48"/><path id="_Path_36" data-name="&lt;Path&gt;" d="M442.1,1163.4H340.8a20.3,20.3,0,0,0-20.3,20.3h0a20.3,20.3,0,0,0,20.3,20.3H462.4a20.3,20.3,0,0,0,20.3-20.3h0a20.3,20.3,0,0,0-20.3-20.3Z" fill="#058040"/><path id="_Path_37" data-name="&lt;Path&gt;" d="M462.4,1203.9H320.6a20.3,20.3,0,0,0-20.3,20.3h0a20.3,20.3,0,0,0,20.3,20.3H482.7a20.3,20.3,0,0,0,20.3-20.3h0a20.3,20.3,0,0,0-20.3-20.3Z" fill="#096c37"/><rect id="_Path_38" data-name="&lt;Path&gt;" x="375.7" y="1244.5" width="51.9" height="82.85" fill="#754c28"/><rect id="_Path_39" data-name="&lt;Path&gt;" x="375.7" y="1244.5" width="37.9" height="82.85" fill="#8a5d3b"/></g><g id="_Group_6" data-name="&lt;Group&gt;"><path id="_Path_40" data-name="&lt;Path&gt;" d="M2179.1,1109.4h0a20.3,20.3,0,0,1-20.3-20.3h0a20.3,20.3,0,0,1,20.3-20.3h0a20.3,20.3,0,0,1,20.3,20.3h0A20.3,20.3,0,0,1,2179.1,1109.4Z" fill="#37b34a"/><path id="_Path_41" data-name="&lt;Path&gt;" d="M2199.4,1150h-60.8a20.3,20.3,0,0,0-20.3,20.3h0a20.3,20.3,0,0,0,20.3,20.3h81.1a20.3,20.3,0,0,0,20.3-20.3h0a20.3,20.3,0,0,0-20.3-20.3Z" fill="#009345"/><path id="_Path_42" data-name="&lt;Path&gt;" d="M2179.1,1109.4h-20.3a20.3,20.3,0,0,0-20.3,20.3h0a20.3,20.3,0,0,0,20.3,20.3h40.5a20.3,20.3,0,0,0,20.3-20.3h0a20.3,20.3,0,0,0-20.3-20.3Z" fill="#329e48"/><path id="_Path_43" data-name="&lt;Path&gt;" d="M2219.7,1190.5H2118.3a20.3,20.3,0,0,0-20.3,20.3h0a20.3,20.3,0,0,0,20.3,20.3h121.6a20.3,20.3,0,0,0,20.3-20.3h0a20.3,20.3,0,0,0-20.3-20.3Z" fill="#058040"/><path id="_Path_44" data-name="&lt;Path&gt;" d="M2239.9,1231H2098.1a20.3,20.3,0,0,0-20.3,20.3h0a20.3,20.3,0,0,0,20.3,20.3h162.1a20.3,20.3,0,0,0,20.3-20.3h0a20.3,20.3,0,0,0-20.3-20.3Z" fill="#096c37"/><rect id="_Path_45" data-name="&lt;Path&gt;" x="2153.2" y="1271.5" width="51.9" height="55.78" fill="#754c28"/><rect id="_Path_46" data-name="&lt;Path&gt;" x="2153.2" y="1271.5" width="37.9" height="55.78" fill="#8a5d3b"/></g><g id="_Group_7" data-name="&lt;Group&gt;"><path id="_Path_47" data-name="&lt;Path&gt;" d="M2422.1,1142.3h0a20.3,20.3,0,0,1-20.3-20.3h0a20.3,20.3,0,0,1,20.3-20.3h0a20.3,20.3,0,0,1,20.3,20.3h0A20.3,20.3,0,0,1,2422.1,1142.3Z" fill="#37b34a"/><path id="_Path_48" data-name="&lt;Path&gt;" d="M2442.4,1182.9h-60.8a20.3,20.3,0,0,0-20.3,20.3h0a20.3,20.3,0,0,0,20.3,20.3h81.1a20.3,20.3,0,0,0,20.3-20.3h0a20.3,20.3,0,0,0-20.3-20.3Z" fill="#009345"/><path id="_Path_49" data-name="&lt;Path&gt;" d="M2422.1,1142.3h-20.3a20.3,20.3,0,0,0-20.3,20.3h0a20.3,20.3,0,0,0,20.3,20.3h40.5a20.3,20.3,0,0,0,20.3-20.3h0a20.3,20.3,0,0,0-20.3-20.3Z" fill="#329e48"/><path id="_Path_50" data-name="&lt;Path&gt;" d="M2462.7,1223.4H2361.3a20.3,20.3,0,0,0-20.3,20.3h0a20.3,20.3,0,0,0,20.3,20.3h121.6a20.3,20.3,0,0,0,20.3-20.3h0a20.3,20.3,0,0,0-20.3-20.3Z" fill="#058040"/><path id="_Path_51" data-name="&lt;Path&gt;" d="M2482.9,1263.9H2341.1a20.3,20.3,0,0,0-20.3,20.3h0a20.3,20.3,0,0,0,20.3,20.3h162.1a20.3,20.3,0,0,0,20.3-20.3h0a20.3,20.3,0,0,0-20.3-20.3Z" fill="#096c37"/><rect id="_Path_52" data-name="&lt;Path&gt;" x="2396.2" y="1304.4" width="51.9" height="22.88" fill="#754c28"/><rect id="_Path_53" data-name="&lt;Path&gt;" x="2396.2" y="1304.4" width="37.9" height="22.88" fill="#8a5d3b"/></g><g id="_Group_8" data-name="&lt;Group&gt;"><path id="_Path_54" data-name="&lt;Path&gt;" d="M1096,1142.3h0a20.3,20.3,0,0,1-20.3-20.3h0a20.3,20.3,0,0,1,20.3-20.3h0a20.3,20.3,0,0,1,20.3,20.3h0A20.3,20.3,0,0,1,1096,1142.3Z" fill="#37b34a"/><path id="_Path_55" data-name="&lt;Path&gt;" d="M1116.3,1182.9h-60.8a20.3,20.3,0,0,0-20.3,20.3h0a20.3,20.3,0,0,0,20.3,20.3h81.1a20.3,20.3,0,0,0,20.3-20.3h0a20.3,20.3,0,0,0-20.3-20.3Z" fill="#009345"/><path id="_Path_56" data-name="&lt;Path&gt;" d="M1096,1142.3h-20.3a20.3,20.3,0,0,0-20.3,20.3h0a20.3,20.3,0,0,0,20.3,20.3h40.5a20.3,20.3,0,0,0,20.3-20.3h0a20.3,20.3,0,0,0-20.3-20.3Z" fill="#329e48"/><path id="_Path_57" data-name="&lt;Path&gt;" d="M1136.5,1223.4H1035.2a20.3,20.3,0,0,0-20.3,20.3h0a20.3,20.3,0,0,0,20.3,20.3h121.6a20.3,20.3,0,0,0,20.3-20.3h0a20.3,20.3,0,0,0-20.3-20.3Z" fill="#058040"/><path id="_Path_58" data-name="&lt;Path&gt;" d="M1156.8,1263.9H1015a20.3,20.3,0,0,0-20.3,20.3h0a20.3,20.3,0,0,0,20.3,20.3h162.1a20.3,20.3,0,0,0,20.3-20.3h0a20.3,20.3,0,0,0-20.3-20.3Z" fill="#096c37"/><rect id="_Path_59" data-name="&lt;Path&gt;" x="1070.1" y="1304.4" width="51.9" height="22.88" fill="#754c28"/><rect id="_Path_60" data-name="&lt;Path&gt;" x="1070.1" y="1304.4" width="37.9" height="22.88" fill="#8a5d3b"/></g><path id="_Path_61" data-name="&lt;Path&gt;" d="M353.6,1301.7h0a19.9,19.9,0,0,0-19.9,19.9,19.9,19.9,0,0,0-39.7,0,19.9,19.9,0,1,0-39.7,0v5.7H373.5v-5.7A19.9,19.9,0,0,0,353.6,1301.7Z" fill="#8bc53f"/><path id="_Path_62" data-name="&lt;Path&gt;" d="M54.7,1313.1h0a11,11,0,0,0-11,11,11,11,0,0,0-22,0,11,11,0,1,0-22,0v3.2H65.7v-3.2A11,11,0,0,0,54.7,1313.1Z" fill="#8bc53f"/><path id="_Path_63" data-name="&lt;Path&gt;" d="M435.5,1310.4h0a13.1,13.1,0,0,0-13.1,13.1,13.1,13.1,0,1,0-26.3,0,13.1,13.1,0,1,0-26.3,0v3.8h78.8v-3.8A13.1,13.1,0,0,0,435.5,1310.4Z" fill="#aad050"/><path id="_Path_64" data-name="&lt;Path&gt;" d="M268.7,1310.4h0a13.1,13.1,0,0,0-13.1,13.1,13.1,13.1,0,1,0-26.3,0,13.1,13.1,0,1,0-26.3,0v3.8h78.8v-3.8A13.1,13.1,0,0,0,268.7,1310.4Z" fill="#aad050"/><g id="_Group_9" data-name="&lt;Group&gt;"><path id="_Path_65" data-name="&lt;Path&gt;" d="M268.4,1142.3h0a20.3,20.3,0,0,1-20.3-20.3h0a20.3,20.3,0,0,1,20.3-20.3h0a20.3,20.3,0,0,1,20.3,20.3h0A20.3,20.3,0,0,1,268.4,1142.3Z" fill="#37b34a"/><path id="_Path_66" data-name="&lt;Path&gt;" d="M288.6,1182.9H227.9a20.3,20.3,0,0,0-20.3,20.3h0a20.3,20.3,0,0,0,20.3,20.3h81.1a20.3,20.3,0,0,0,20.3-20.3h0a20.3,20.3,0,0,0-20.3-20.3Z" fill="#009345"/><path id="_Path_67" data-name="&lt;Path&gt;" d="M268.4,1142.3H248.1a20.3,20.3,0,0,0-20.3,20.3h0a20.3,20.3,0,0,0,20.3,20.3h40.5a20.3,20.3,0,0,0,20.3-20.3h0a20.3,20.3,0,0,0-20.3-20.3Z" fill="#329e48"/><path id="_Path_68" data-name="&lt;Path&gt;" d="M308.9,1223.4H207.6a20.3,20.3,0,0,0-20.3,20.3h0a20.3,20.3,0,0,0,20.3,20.3H329.2a20.3,20.3,0,0,0,20.3-20.3h0a20.3,20.3,0,0,0-20.3-20.3Z" fill="#058040"/><path id="_Path_69" data-name="&lt;Path&gt;" d="M329.2,1263.9H187.3a20.3,20.3,0,0,0-20.3,20.3h0a20.3,20.3,0,0,0,20.3,20.3H349.4a20.3,20.3,0,0,0,20.3-20.3h0a20.3,20.3,0,0,0-20.3-20.3Z" fill="#096c37"/><rect id="_Path_70" data-name="&lt;Path&gt;" x="242.4" y="1304.4" width="51.9" height="22.88" fill="#754c28"/><rect id="_Path_71" data-name="&lt;Path&gt;" x="242.4" y="1304.4" width="37.9" height="22.88" fill="#8a5d3b"/></g><g id="_Group_10" data-name="&lt;Group&gt;"><path id="_Path_72" data-name="&lt;Path&gt;" d="M1605.4,1136.8h0a20.3,20.3,0,0,1-20.3-20.3h0a20.3,20.3,0,0,1,20.3-20.3h0a20.3,20.3,0,0,1,20.3,20.3h0A20.3,20.3,0,0,1,1605.4,1136.8Z" fill="#37b34a"/><path id="_Path_73" data-name="&lt;Path&gt;" d="M1625.7,1177.3h-60.8a20.3,20.3,0,0,0-20.3,20.3h0a20.3,20.3,0,0,0,20.3,20.3H1646a20.3,20.3,0,0,0,20.3-20.3h0a20.3,20.3,0,0,0-20.3-20.3Z" fill="#009345"/><path id="_Path_74" data-name="&lt;Path&gt;" d="M1605.4,1136.8h-20.3a20.3,20.3,0,0,0-20.3,20.3h0a20.3,20.3,0,0,0,20.3,20.3h40.5A20.3,20.3,0,0,0,1646,1157h0a20.3,20.3,0,0,0-20.3-20.3Z" fill="#329e48"/><path id="_Path_75" data-name="&lt;Path&gt;" d="M1646,1217.8H1544.6a20.3,20.3,0,0,0-20.3,20.3h0a20.3,20.3,0,0,0,20.3,20.3h121.6a20.3,20.3,0,0,0,20.3-20.3h0a20.3,20.3,0,0,0-20.3-20.3Z" fill="#058040"/><path id="_Path_76" data-name="&lt;Path&gt;" d="M1666.2,1258.3H1524.4a20.3,20.3,0,0,0-20.3,20.3h0a20.3,20.3,0,0,0,20.3,20.3h162.1a20.3,20.3,0,0,0,20.3-20.3h0a20.3,20.3,0,0,0-20.3-20.3Z" fill="#096c37"/><rect id="_Path_77" data-name="&lt;Path&gt;" x="1579.5" y="1298.9" width="51.9" height="28.6" fill="#754c28"/><rect id="_Path_78" data-name="&lt;Path&gt;" x="1579.5" y="1298.9" width="37.9" height="28.6" fill="#8a5d3b"/></g><g id="_Group_11" data-name="&lt;Group&gt;"><path id="_Path_79" data-name="&lt;Path&gt;" d="M1475.9,1075.4h0a20.3,20.3,0,0,1-20.3-20.3h0a20.3,20.3,0,0,1,20.3-20.3h0a20.3,20.3,0,0,1,20.3,20.3h0A20.3,20.3,0,0,1,1475.9,1075.4Z" fill="#37b34a"/><path id="_Path_80" data-name="&lt;Path&gt;" d="M1496.2,1115.9h-60.8a20.3,20.3,0,0,0-20.3,20.3h0a20.3,20.3,0,0,0,20.3,20.3h81.1a20.3,20.3,0,0,0,20.3-20.3h0a20.3,20.3,0,0,0-20.3-20.3Z" fill="#009345"/><path id="_Path_81" data-name="&lt;Path&gt;" d="M1475.9,1075.4h-20.3a20.3,20.3,0,0,0-20.3,20.3h0a20.3,20.3,0,0,0,20.3,20.3h40.5a20.3,20.3,0,0,0,20.3-20.3h0a20.3,20.3,0,0,0-20.3-20.3Z" fill="#329e48"/><path id="_Path_82" data-name="&lt;Path&gt;" d="M1516.4,1156.4H1415.1a20.3,20.3,0,0,0-20.3,20.3h0a20.3,20.3,0,0,0,20.3,20.3h121.6a20.3,20.3,0,0,0,20.3-20.3h0a20.3,20.3,0,0,0-20.3-20.3Z" fill="#058040"/><path id="_Path_83" data-name="&lt;Path&gt;" d="M1536.7,1196.9H1394.8a20.3,20.3,0,0,0-20.3,20.3h0a20.3,20.3,0,0,0,20.3,20.3h162.1a20.3,20.3,0,0,0,20.3-20.3h0a20.3,20.3,0,0,0-20.3-20.3Z" fill="#096c37"/><rect id="_Path_84" data-name="&lt;Path&gt;" x="1449.9" y="1237.5" width="51.9" height="89.85" fill="#754c28"/><rect id="_Path_85" data-name="&lt;Path&gt;" x="1449.9" y="1237.5" width="37.9" height="89.85" fill="#8a5d3b"/></g><g id="_Group_12" data-name="&lt;Group&gt;"><path id="_Path_86" data-name="&lt;Path&gt;" d="M964.8,1075.4h0a20.3,20.3,0,0,1-20.3-20.3h0a20.3,20.3,0,0,1,20.3-20.3h0a20.3,20.3,0,0,1,20.3,20.3h0A20.3,20.3,0,0,1,964.8,1075.4Z" fill="#37b34a"/><path id="_Path_87" data-name="&lt;Path&gt;" d="M985,1115.9H924.3a20.3,20.3,0,0,0-20.3,20.3h0a20.3,20.3,0,0,0,20.3,20.3h81.1a20.3,20.3,0,0,0,20.3-20.3h0a20.3,20.3,0,0,0-20.3-20.3Z" fill="#009345"/><path id="_Path_88" data-name="&lt;Path&gt;" d="M964.8,1075.4H944.5a20.3,20.3,0,0,0-20.3,20.3h0a20.3,20.3,0,0,0,20.3,20.3H985a20.3,20.3,0,0,0,20.3-20.3h0a20.3,20.3,0,0,0-20.3-20.3Z" fill="#329e48"/><path id="_Path_89" data-name="&lt;Path&gt;" d="M1005.3,1156.4H904a20.3,20.3,0,0,0-20.3,20.3h0a20.3,20.3,0,0,0,20.3,20.3h121.6a20.3,20.3,0,0,0,20.3-20.3h0a20.3,20.3,0,0,0-20.3-20.3Z" fill="#058040"/><path id="_Path_90" data-name="&lt;Path&gt;" d="M1025.6,1196.9H883.7a20.3,20.3,0,0,0-20.3,20.3h0a20.3,20.3,0,0,0,20.3,20.3h162.1a20.3,20.3,0,0,0,20.3-20.3h0a20.3,20.3,0,0,0-20.3-20.3Z" fill="#096c37"/><rect id="_Path_91" data-name="&lt;Path&gt;" x="938.8" y="1237.5" width="51.9" height="89.85" fill="#754c28"/><rect id="_Path_92" data-name="&lt;Path&gt;" x="938.8" y="1237.5" width="37.9" height="89.85" fill="#8a5d3b"/></g><circle cx="1318.8" cy="254.1" r="75.2" fill="#ccc" opacity="0.3"/><circle cx="1432.7" cy="303.1" r="89.7" fill="#ccc" opacity="0.3"/><circle cx="1939.8" cy="252.7" r="82.7" fill="#ccc" opacity="0.3"/><circle cx="1743.5" cy="296.6" r="75.2" fill="#ccc" opacity="0.3"/><circle cx="1608.9" cy="254.1" r="102" fill="#ccc" opacity="0.3"/><circle cx="1484.8" cy="209.9" r="44.2" fill="#ccc" opacity="0.3"/><circle cx="1224.8" cy="280.2" r="44.2" fill="#ccc" opacity="0.3"/><circle cx="1621.7" cy="332.7" r="44.2" fill="#ccc" opacity="0.3"/><circle cx="1710.9" cy="196.3" r="44.2" fill="#ccc" opacity="0.3"/><circle cx="2022.5" cy="321.6" r="44.2" fill="#ccc" opacity="0.3"/><circle cx="2075.4" cy="184.6" r="23.3" fill="#ccc" opacity="0.3"/><circle cx="1413.3" cy="165.7" r="23.3" fill="#ccc" opacity="0.3"/><circle cx="1871.8" cy="356.2" r="23.3" fill="#ccc" opacity="0.3"/><path id="_Path_93" data-name="&lt;Path&gt;" d="M1017.1,1301.7h0a19.9,19.9,0,0,0-19.9,19.9,19.9,19.9,0,0,0-39.7,0,19.9,19.9,0,1,0-39.7,0v5.7H1037v-5.7A19.9,19.9,0,0,0,1017.1,1301.7Z" fill="#8bc53f"/><circle cx="1759.1" cy="175.4" r="23.3" fill="#ccc" opacity="0.3"/><path id="_Path_94" data-name="&lt;Path&gt;" d="M2190.8,1310.4h0a13.1,13.1,0,0,0-13.1,13.1,13.1,13.1,0,1,0-26.3,0,13.1,13.1,0,1,0-26.3,0v3.8h78.8v-3.8A13.1,13.1,0,0,0,2190.8,1310.4Z" fill="#aad050"/><path id="_Path_95" data-name="&lt;Path&gt;" d="M1624.7,1310.4h0a13.1,13.1,0,0,0-13.1,13.1,13.1,13.1,0,1,0-26.3,0,13.1,13.1,0,1,0-26.3,0v3.8h78.8v-3.8A13.1,13.1,0,0,0,1624.7,1310.4Z" fill="#aad050"/><circle cx="1839.9" cy="244.3" r="44.2" fill="#ccc" opacity="0.3"/><rect x="1621.7" y="918.4" width="215.4" height="164.08" fill="#b8531e"/><polygon points="1759 340.8 1621.7 340.8 1621.7 376.2 1721.3 376.2 1759 340.8" fill="#963e17"/><rect x="1621.7" y="376.2" width="99.6" height="44.93" fill="#b8531e"/><rect x="1621.7" y="612.5" width="159.6" height="44.93" fill="#b8531e"/><rect x="1621.7" y="494.3" width="130.1" height="44.93" fill="#b8531e"/><rect x="1621.7" y="730.6" width="189" height="133.42" fill="#b8531e"/><polygon points="2077.8 1055.6 1964.5 1055.6 1964.5 1133 1621.7 1133 1621.7 1212.5 2077.8 1212.5 2077.8 1055.6" fill="#b8531e"/><rect x="1621.7" y="1248.6" width="537.5" height="61.32" fill="#939598"/><rect x="1621.7" y="1248.6" width="537.5" height="15.81" fill="#8a8c8e"/><rect x="1621.7" y="1231.6" width="549.1" height="17.52" fill="#6d6e71"/><rect x="1621.7" y="1309.9" width="549.1" height="17.52" fill="#6d6e71"/><rect x="1621.7" y="1212.5" width="492.2" height="19.03" fill="#bcbec0"/><rect x="1621.7" y="1133" width="429.3" height="19.03" fill="#bcbec0"/><rect x="1621.7" y="1152" width="407.1" height="60.53" fill="#9e411d"/><rect x="1837.1" y="908.9" width="207.9" height="19.03" fill="#939598"/><rect x="1837.1" y="963.3" width="127.4" height="19.03" fill="#aa491d"/><rect x="1837.1" y="982.3" width="127.4" height="119.21" fill="#9e411d"/><polygon points="2045 927.9 1837.1 927.9 1837.1 963.3 1964.5 963.3 2045 927.9" fill="#963e17"/><rect x="1894" y="889.9" width="151.1" height="19.03" fill="#bcbec0"/><rect x="1969.5" y="870.8" width="75.5" height="19.03" fill="#939598"/><rect x="2007.2" y="851.8" width="37.8" height="19.03" fill="#bcbec0"/><rect x="1773" y="638.4" width="75.5" height="19.03" fill="#939598"/><rect x="1810.7" y="619.3" width="37.8" height="19.03" fill="#bcbec0"/><rect x="1621.7" y="657.4" width="226.8" height="19.03" fill="#bcbec0"/><rect x="1621.7" y="676.4" width="237.4" height="19.03" fill="#939598"/><rect x="1964.5" y="982.2" width="75.5" height="19.03" fill="#b8531e"/><rect x="2045" y="908.8" width="75.5" height="19.03" fill="#bcbec0"/><rect x="2045" y="889.7" width="75.5" height="19.03" fill="#939598"/><rect x="2082.7" y="870.7" width="37.8" height="19.03" fill="#bcbec0"/><rect x="1621.7" y="845" width="342.8" height="19.03" fill="#939598"/><polygon points="1917.6 864 1621.7 864 1621.7 899.4 1837.1 899.4 1917.6 864" fill="#963e17"/><polygon points="1848.5 695.3 1621.7 695.3 1621.7 730.6 1810.7 730.6 1848.5 695.3" fill="#963e17"/><rect x="1763.4" y="826" width="201.1" height="19.03" fill="#bcbec0"/><rect x="1821.5" y="806.9" width="143" height="19.03" fill="#939598"/><path d="M1945.6,645.3a18.9,18.9,0,0,0-18.9,18.9v31.1l-78.3,111.7h116V664.2A18.9,18.9,0,0,0,1945.6,645.3Z" fill="#bcbec0"/><rect x="1621.7" y="1101.5" width="342.8" height="19.03" fill="#bcbec0"/><rect x="1621.7" y="1120.6" width="342.8" height="12.42" fill="#939598"/><path d="M1966.1,1169.1h-53.9v43.5h53.9v-6.9h17.3a36.6,36.6,0,0,0,36.6-36.6Z" fill="#939598"/><path d="M1820.9,1169.1h-53.9v43.5h53.9v-6.9h17.3a36.6,36.6,0,0,0,36.6-36.6Z" fill="#939598"/><path d="M1675.6,1169.1h-53.9v43.5h53.9v-6.9h17.3a36.6,36.6,0,0,0,36.6-36.6Z" fill="#939598"/><rect x="1912.2" y="1082.5" width="52.3" height="19.03" fill="#939598"/><rect x="1938.4" y="1063.5" width="26.2" height="19.03" fill="#bcbec0"/><rect x="1938.4" y="982.3" width="26.2" height="19.03" fill="#bcbec0"/><rect x="1621.7" y="899.4" width="215.4" height="19.03" fill="#d06228"/><rect x="1810.9" y="918.4" width="26.2" height="19.03" fill="#bcbec0"/><rect x="1621.7" y="918.4" width="26.2" height="19.03" fill="#bcbec0"/><rect x="1621.7" y="1082.5" width="215.4" height="19.03" fill="#939598"/><rect x="1810.9" y="1063.5" width="26.2" height="19.03" fill="#bcbec0"/><rect x="1621.7" y="1063.5" width="26.2" height="19.03" fill="#bcbec0"/><polygon points="2002 946.8 1964.5 963.3 1964.5 982.2 2040 982.2 2120.5 946.8 2002 946.8" fill="#873515"/><polygon points="1912.6 927.9 2045 927.9 2002 946.8 2120.5 946.8 2120.5 927.8 1912.6 927.9" fill="#939598"/><rect x="1964.5" y="1001.2" width="226.6" height="19.03" fill="#939598"/><polygon points="2191.1 1020.2 1964.5 1020.2 1964.5 1055.6 2110.6 1055.6 2191.1 1020.2" fill="#d06228"/><rect x="2040.1" y="982.1" width="151.1" height="19.03" fill="#bcbec0"/><rect x="2115.6" y="963.1" width="75.5" height="19.03" fill="#939598"/><rect x="2153.4" y="944.1" width="37.8" height="19.03" fill="#bcbec0"/><rect x="1743.5" y="520.2" width="75.5" height="19.03" fill="#939598"/><rect x="1781.3" y="501.2" width="37.8" height="19.03" fill="#bcbec0"/><rect x="1621.7" y="539.2" width="197.3" height="19.03" fill="#bcbec0"/><rect x="1621.7" y="558.3" width="207.9" height="19.03" fill="#939598"/><polygon points="1819 577.1 1621.7 577.1 1621.7 612.5 1781.3 612.5 1819 577.1" fill="#963e17"/><rect x="1714" y="402.1" width="75.5" height="19.03" fill="#939598"/><rect x="1751.8" y="383" width="37.8" height="19.03" fill="#bcbec0"/><rect x="1621.7" y="421.1" width="167.9" height="19.03" fill="#bcbec0"/><rect x="1621.7" y="440.1" width="178.5" height="19.03" fill="#939598"/><polygon points="1789.6 459 1621.7 459 1621.7 494.3 1751.8 494.3 1789.6 459" fill="#963e17"/><rect x="1683.5" y="283.9" width="75.5" height="19.03" fill="#939598"/><rect x="1721.3" y="264.9" width="37.8" height="19.03" fill="#bcbec0"/><path d="M1637.2,169.1h0a15.5,15.5,0,0,0-15.5,15.5V302.9h30.9V184.6A15.5,15.5,0,0,0,1637.2,169.1Z" fill="#939598"/><path d="M1652.6,221.5h0v81.5h30.9V252.4A30.9,30.9,0,0,0,1652.6,221.5Z" fill="#6d6e71"/><rect x="1621.7" y="302.9" width="137.4" height="19.03" fill="#bcbec0"/><rect x="1621.7" y="322" width="147.9" height="19.03" fill="#939598"/><path d="M1785.6,962.8v-19H1673.2v19h-26.2v75.3h26.2v19h112.3v-19h26.2V962.8Zm19.8,68.9h-26.2v19h-99.6v-19h-26.2V969.2h26.2v-19h99.6v19h26.2Z" fill="#d06228"/><rect x="723.7" y="918.4" width="215.4" height="164.08" fill="#b8531e"/><polygon points="801.8 340.8 939.1 340.8 939.1 376.2 839.5 376.2 801.8 340.8" fill="#963e17"/><rect x="839.5" y="376.2" width="99.6" height="44.93" fill="#b8531e"/><rect x="779.5" y="612.5" width="159.6" height="44.93" fill="#b8531e"/><rect x="809" y="494.3" width="130.1" height="44.93" fill="#b8531e"/><rect x="750.1" y="730.6" width="189" height="133.42" fill="#b8531e"/><polygon points="483 1055.6 596.3 1055.6 596.3 1133 939.1 1133 939.1 1212.5 483 1212.5 483 1055.6" fill="#b8531e"/><rect x="401.6" y="1248.6" width="537.5" height="61.32" fill="#939598"/><rect x="401.6" y="1248.6" width="537.5" height="15.81" fill="#8a8c8e"/><rect x="390" y="1231.6" width="549.1" height="17.52" fill="#6d6e71"/><rect x="390" y="1309.9" width="549.1" height="17.52" fill="#6d6e71"/><rect x="446.9" y="1212.5" width="492.2" height="19.03" fill="#bcbec0"/><rect x="509.8" y="1133" width="429.3" height="19.03" fill="#bcbec0"/><rect x="532.1" y="1152" width="407.1" height="60.53" fill="#9e411d"/><rect x="515.8" y="908.9" width="207.9" height="19.03" fill="#939598"/><rect x="596.3" y="963.3" width="127.4" height="19.03" fill="#aa491d"/><rect x="596.3" y="982.3" width="127.4" height="119.21" fill="#9e411d"/><polygon points="515.8 927.9 723.7 927.9 723.7 963.3 596.3 963.3 515.8 927.9" fill="#963e17"/><rect x="515.8" y="889.9" width="151.1" height="19.03" fill="#bcbec0"/><rect x="515.8" y="870.8" width="75.5" height="19.03" fill="#939598"/><rect x="515.8" y="851.8" width="37.8" height="19.03" fill="#bcbec0"/><rect x="712.3" y="638.4" width="75.5" height="19.03" fill="#939598"/><rect x="712.3" y="619.3" width="37.8" height="19.03" fill="#bcbec0"/><rect x="712.3" y="657.4" width="226.8" height="19.03" fill="#bcbec0"/><rect x="701.7" y="676.4" width="237.4" height="19.03" fill="#939598"/><rect x="520.8" y="982.2" width="75.5" height="19.03" fill="#b8531e"/><rect x="440.3" y="908.8" width="75.5" height="19.03" fill="#bcbec0"/><rect x="440.3" y="889.7" width="75.5" height="19.03" fill="#939598"/><rect x="440.3" y="870.7" width="37.8" height="19.03" fill="#bcbec0"/><rect x="596.3" y="845" width="342.8" height="19.03" fill="#939598"/><polygon points="643.2 864 939.1 864 939.1 899.4 723.7 899.4 643.2 864" fill="#963e17"/><polygon points="712.3 695.3 939.1 695.3 939.1 730.6 750.1 730.6 712.3 695.3" fill="#963e17"/><rect x="596.3" y="826" width="201.1" height="19.03" fill="#bcbec0"/><rect x="596.3" y="806.9" width="143" height="19.03" fill="#939598"/><path d="M615.2,645.3A18.9,18.9,0,0,1,634,664.2v31.1l78.3,111.7h-116V664.2A18.9,18.9,0,0,1,615.2,645.3Z" fill="#bcbec0"/><rect x="596.3" y="1101.5" width="342.8" height="19.03" fill="#bcbec0"/><rect x="596.3" y="1120.6" width="342.8" height="12.42" fill="#939598"/><path d="M594.7,1169.1h53.9v43.5H594.7v-6.9H577.4a36.6,36.6,0,0,1-36.6-36.6Z" fill="#939598"/><path d="M739.9,1169.1h53.9v43.5H739.9v-6.9H722.6a36.6,36.6,0,0,1-36.6-36.6Z" fill="#939598"/><path d="M885.2,1169.1h53.9v43.5H885.2v-6.9H867.9a36.6,36.6,0,0,1-36.6-36.6Z" fill="#939598"/><rect x="596.3" y="1082.5" width="52.3" height="19.03" fill="#939598"/><rect x="596.3" y="1063.5" width="26.2" height="19.03" fill="#bcbec0"/><rect x="596.3" y="982.3" width="26.2" height="19.03" fill="#bcbec0"/><rect x="723.7" y="899.4" width="215.4" height="19.03" fill="#d06228"/><rect x="723.7" y="918.4" width="26.2" height="19.03" fill="#bcbec0"/><rect x="912.9" y="918.4" width="26.2" height="19.03" fill="#bcbec0"/><rect x="723.7" y="1082.5" width="215.4" height="19.03" fill="#939598"/><rect x="723.7" y="1063.5" width="26.2" height="19.03" fill="#bcbec0"/><rect x="912.9" y="1063.5" width="26.2" height="19.03" fill="#bcbec0"/><polygon points="558.8 946.8 596.3 963.3 596.3 982.2 520.8 982.2 440.3 946.8 558.8 946.8" fill="#873515"/><polygon points="648.2 927.9 515.8 927.9 558.8 946.8 440.3 946.8 440.3 927.8 648.2 927.9" fill="#939598"/><rect x="369.7" y="1001.2" width="226.6" height="19.03" fill="#939598"/><polygon points="369.7 1020.2 596.3 1020.2 596.3 1055.6 450.2 1055.6 369.7 1020.2" fill="#d06228"/><rect x="369.7" y="982.1" width="151.1" height="19.03" fill="#bcbec0"/><rect x="369.7" y="963.1" width="75.5" height="19.03" fill="#939598"/><rect x="369.7" y="944.1" width="37.8" height="19.03" fill="#bcbec0"/><rect x="741.8" y="520.2" width="75.5" height="19.03" fill="#939598"/><rect x="741.8" y="501.2" width="37.8" height="19.03" fill="#bcbec0"/><rect x="741.8" y="539.2" width="197.3" height="19.03" fill="#bcbec0"/><rect x="731.2" y="558.3" width="207.9" height="19.03" fill="#939598"/><polygon points="741.8 577.1 939.1 577.1 939.1 612.5 779.5 612.5 741.8 577.1" fill="#963e17"/><rect x="771.2" y="402.1" width="75.5" height="19.03" fill="#939598"/><rect x="771.2" y="383" width="37.8" height="19.03" fill="#bcbec0"/><rect x="771.2" y="421.1" width="167.9" height="19.03" fill="#bcbec0"/><rect x="760.7" y="440.1" width="178.5" height="19.03" fill="#939598"/><polygon points="771.2 459 939.1 459 939.1 494.3 809 494.3 771.2 459" fill="#963e17"/><rect x="801.8" y="283.9" width="75.5" height="19.03" fill="#939598"/><rect x="801.8" y="264.9" width="37.8" height="19.03" fill="#bcbec0"/><path d="M923.7,169.1h0a15.5,15.5,0,0,1,15.5,15.5V302.9H908.2V184.6A15.5,15.5,0,0,1,923.7,169.1Z" fill="#939598"/><path d="M908.2,221.5h0v81.5H877.3V252.4A30.9,30.9,0,0,1,908.2,221.5Z" fill="#6d6e71"/><rect x="801.8" y="302.9" width="137.4" height="19.03" fill="#bcbec0"/><rect x="791.2" y="322" width="147.9" height="19.03" fill="#939598"/><path d="M749.1,962.8v75.3h26.2v19H887.6v-19h26.2V962.8H887.6v-19H775.2v19Zm6.3,6.3h26.2v-19h99.6v19h26.2v62.6H881.2v19H781.6v-19H755.4Z" fill="#d06228"/><rect x="0.4" y="1327.3" width="2560" height="272.69" fill="#096c37"/><rect x="0.4" y="1327.3" width="2560" height="272.69" fill="url(#Fade_to_White_1-4)" style="mix-blend-mode:overlay"/><path id="_Path_96" data-name="&lt;Path&gt;" d="M1542.8,1301.7h0a19.9,19.9,0,0,0-19.9,19.9,19.9,19.9,0,0,0-39.7,0,19.9,19.9,0,1,0-39.7,0v5.7h119.2v-5.7A19.9,19.9,0,0,0,1542.8,1301.7Z" fill="#8bc53f"/><path id="_Path_97" data-name="&lt;Path&gt;" d="M1099,1310.4h0a13.1,13.1,0,0,0-13.1,13.1,13.1,13.1,0,1,0-26.3,0,13.1,13.1,0,1,0-26.3,0v3.8h78.8v-3.8A13.1,13.1,0,0,0,1099,1310.4Z" fill="#aad050"/><path d="M1478.6,560.4a123.6,123.6,0,0,0-122.8,109.7V875.7h138.6V560.4Z" fill="#f2c333"/><path d="M1085.3,560.4a123.6,123.6,0,0,1,122.8,109.7V875.7H1069.5V560.4Z" fill="#f2c333"/><rect x="1153.9" y="1050.4" width="253" height="51.54" fill="#262626"/><path d="M1199.7,1191.3h161.4a53.2,53.2,0,0,0,53.2-53.2H1146.5A53.2,53.2,0,0,0,1199.7,1191.3Z" fill="#cb2027"/><path d="M1154.8,1138.2v4a31.3,31.3,0,0,0,1.3,9,45.6,45.6,0,0,0,43.6,32.5h161.4a45.6,45.6,0,0,0,43.6-32.5,31.3,31.3,0,0,0,1.3-9v-4Z" fill="#a02127"/><path d="M1444,875.7H1340.8a13.8,13.8,0,0,1-13.3-10.5,48.7,48.7,0,0,0-94.2,0,13.8,13.8,0,0,1-13.3,10.5H914.7V891a135.4,135.4,0,0,0,135.4,135.4h460.6A135.4,135.4,0,0,0,1646.1,891V875.7Z" fill="#cb2027"/><path d="M1327.5,865.1a13.8,13.8,0,0,0,13.3,10.5H1422V719.1h-15.8a123.6,123.6,0,0,0-122.8,109.7A48.7,48.7,0,0,1,1327.5,865.1Z" fill="#bf6928"/><path d="M1541.6,828.7V765.2a52.5,52.5,0,1,1,15.9-77.2v-9.2a52.3,52.3,0,0,1-12-65.6h-3.3A120.1,120.1,0,0,0,1422,733.3V875.7h115.4A238,238,0,0,0,1541.6,828.7Z" fill="#d99c2a"/><path d="M1233.3,865.1a13.8,13.8,0,0,1-13.3,10.5h-81.2V719.1h15.8a123.6,123.6,0,0,1,122.8,109.7A48.7,48.7,0,0,0,1233.3,865.1Z" fill="#bf6928"/><path d="M1019.2,828.7V765.2a52.5,52.5,0,1,0-15.9-77.2v-9.2a52.3,52.3,0,0,0,12-65.6h3.3a120.1,120.1,0,0,1,120.1,120.1V875.7H1023.5A238,238,0,0,1,1019.2,828.7Z" fill="#d99c2a"/><path d="M1753.7,659.6a9,9,0,0,0-.1-1.1,52.5,52.5,0,1,0-26.1,52.3v33.1a24.7,24.7,0,0,1-24.7,24.7H1668a24.7,24.7,0,0,1-24.7-24.7V633.1a8.9,8.9,0,0,0-.1-1.1,52.5,52.5,0,1,0-26.1,52.3v59.6a24.7,24.7,0,0,1-49.4,0V714.1a9,9,0,0,0-.1-1.1,52.5,52.5,0,1,0-26.1,52.3v63.4a238,238,0,0,1-4.2,47h108.8V891a135.4,135.4,0,0,1-135.4,135.4h-48.3a6.9,6.9,0,0,1,1.6,6.1l-12.9,69.6a11.9,11.9,0,0,1-2.1,5,15.3,15.3,0,0,1-8,5.5v4.4a21,21,0,0,1-8,16.5h78.1c130.2,0,236.4-102.6,242.3-231.4h.3Z" fill="#f2e74f"/><path d="M1451.2,1028.3a8.2,8.2,0,0,1,1.4-1.9h-8.3a21,21,0,0,1,2,8.8v2.3Z" fill="#f2e74f"/><path d="M1541.6,794.6v34.1a238,238,0,0,1-4.2,47h108.8V891a135.4,135.4,0,0,1-135.4,135.4h-66.4a21,21,0,0,1,2,8.8v15.1h-18.2l-2.5,51.5h15.6v5.6h69.6c119.4,0,216.5-97.1,216.5-216.5V794.6Z" fill="#f2c333"/><path d="M807.1,659.6a9,9,0,0,1,.1-1.1,52.5,52.5,0,1,1,26.1,52.3v33.1a24.7,24.7,0,0,0,24.7,24.7h34.8a24.7,24.7,0,0,0,24.7-24.7V633.1a8.9,8.9,0,0,1,.1-1.1,52.5,52.5,0,1,1,26.1,52.3v59.6a24.7,24.7,0,0,0,49.4,0V714.1a9,9,0,0,1,.1-1.1,52.5,52.5,0,1,1,26.1,52.3v63.4a238,238,0,0,0,4.2,47H914.7V891a135.4,135.4,0,0,0,135.4,135.4h48.3a6.9,6.9,0,0,0-1.6,6.1l12.9,69.6a11.9,11.9,0,0,0,2.1,5,15.3,15.3,0,0,0,8,5.5v4.4a21,21,0,0,0,8,16.5h-78.1c-130.2,0-236.4-102.6-242.3-231.4h-.3Z" fill="#f2e74f"/><path d="M1109.6,1028.3a8.2,8.2,0,0,0-1.4-1.9h8.3a21,21,0,0,0-2,8.8v2.3Z" fill="#f2e74f"/><path d="M1019.2,794.6v34.1a238,238,0,0,0,4.2,47H914.7V891a135.4,135.4,0,0,0,135.4,135.4h66.4a21,21,0,0,0-2,8.8v15.1h18.2l2.5,51.5h-15.6v5.6h-69.6c-119.4,0-216.5-97.1-216.5-216.5V794.6Z" fill="#f2c333"/><circle cx="1174.6" cy="928.9" r="78.5" fill="#fdeec9"/><circle cx="1174.6" cy="928.9" r="48.5" fill="#fdeec9"/><path d="M1174.6,894.4a34.4,34.4,0,1,0,34.4,34.4A34.4,34.4,0,0,0,1174.6,894.4Zm0,23.6a9.8,9.8,0,1,1,9.8-9.8A9.8,9.8,0,0,1,1174.6,918Z" fill="#262626"/><circle cx="1386.2" cy="928.9" r="78.5" fill="#fdeec9"/><path d="M1386.2,875.7a53.2,53.2,0,1,0,53.2,53.2A53.2,53.2,0,0,0,1386.2,875.7Zm0,101.7a48.5,48.5,0,1,1,48.5-48.5A48.5,48.5,0,0,1,1386.2,977.3Z" fill="#d99c2a"/><path d="M1386.2,867.8a61.1,61.1,0,1,0,61.1,61.1A61.1,61.1,0,0,0,1386.2,867.8Zm0,114.3a53.2,53.2,0,1,1,53.2-53.2A53.2,53.2,0,0,1,1386.2,982.1Z" fill="#262626"/><circle cx="1386.2" cy="928.9" r="48.5" fill="#fdeec9"/><path d="M1174.6,875.7a53.2,53.2,0,1,0,53.2,53.2A53.2,53.2,0,0,0,1174.6,875.7Zm0,101.7a48.5,48.5,0,1,1,48.5-48.5A48.5,48.5,0,0,1,1174.6,977.3Z" fill="#d99c2a"/><path d="M1174.6,867.8a61.1,61.1,0,1,0,61.1,61.1A61.1,61.1,0,0,0,1174.6,867.8Zm0,114.3a53.2,53.2,0,1,1,53.2-53.2A53.2,53.2,0,0,1,1174.6,982.1Z" fill="#262626"/><path d="M1318.9,923.9h-4a34.5,34.5,0,0,0-69,0h-4a35,35,0,1,0,0,70h76.9a35,35,0,1,0,0-70Z" fill="#a02127"/><path d="M1386.2,894.8a34.4,34.4,0,1,0,34.4,34.4A34.4,34.4,0,0,0,1386.2,894.8Zm0,23.6a9.8,9.8,0,1,1,9.8-9.8A9.8,9.8,0,0,1,1386.2,918.4Z" fill="#262626"/><circle cx="1319.4" cy="958.9" r="26" fill="#d99c2a"/><circle cx="1319.4" cy="958.9" r="20.9" fill="#a02127"/><circle cx="1319.4" cy="958.9" r="18.4" fill="#262626"/><circle cx="1241.4" cy="958.9" r="26" fill="#d99c2a"/><circle cx="1241.4" cy="958.9" r="20.9" fill="#a02127"/><circle cx="1241.4" cy="958.9" r="18.4" fill="#262626"/><path d="M1096,928.9a78.3,78.3,0,0,1,20.8-53.2H930V891a120.1,120.1,0,0,0,120.1,120.1h93.2a31.1,31.1,0,0,0,17-5A78.6,78.6,0,0,1,1096,928.9Z" fill="#a02127"/><path d="M1425.2,1014.2H1135.6a21.1,21.1,0,0,0-21.1,21.1v15.1h331.7v-15.1A21.1,21.1,0,0,0,1425.2,1014.2Z" fill="#db8174"/><path d="M1140.8,1138.2H1420a21.1,21.1,0,0,0,21.1-21.1v-15.1H1119.7v15.1A21.1,21.1,0,0,0,1140.8,1138.2Z" fill="#db8174"/><path d="M1464.8,928.9a78.3,78.3,0,0,0-20.8-53.2h186.8V891a120.1,120.1,0,0,1-120.1,120.1h-93.2a31.1,31.1,0,0,1-17-5A78.6,78.6,0,0,0,1464.8,928.9Z" fill="#a02127"/><path d="M1444,875.7a78.6,78.6,0,0,1,17,77.5h4.4a75.9,75.9,0,0,0,75.9-75.9v-1.5Z" fill="#8e1e29"/><path d="M1116.8,875.7a78.6,78.6,0,0,0-17,77.5h-4.4a75.9,75.9,0,0,1-75.9-75.9v-1.5Z" fill="#8e1e29"/><path d="M1248.5,1030h5.9a23.8,23.8,0,0,1,23.8,23.8h0a10.1,10.1,0,0,1-10.1,10.1h-33.4a10.1,10.1,0,0,1-10.1-10.1h0A23.8,23.8,0,0,1,1248.5,1030Z" fill="#fdeec9"/><path d="M1193.3,1030h5.9a23.8,23.8,0,0,1,23.8,23.8h0a10.1,10.1,0,0,1-10.1,10.1h-33.4a10.1,10.1,0,0,1-10.1-10.1h0A23.8,23.8,0,0,1,1193.3,1030Z" fill="#fdeec9"/><path d="M1132.4,1043.1l3.7,74.1c.4,8.3,11.3,9.6,13.4,1.6l18.3-68.4a11.9,11.9,0,0,0,.2-5.4c-3.1-15.3-27.3-18.2-34.6-6A7.3,7.3,0,0,0,1132.4,1043.1Z" fill="#fdeec9"/><path d="M1133.9,1073.6l-24.3-45.3c-3.9-7.3-14.3-3.8-12.8,4.3l12.9,69.6a11.9,11.9,0,0,0,2.1,5c5.6,7.5,16.1,7.7,24,3.6Z" fill="#fdeec9"/><path d="M1108.2,1026.5a8.2,8.2,0,0,1,1.4,1.9l5,9.3v-2.3a21,21,0,0,1,2-8.8Z" fill="#a02127"/><path d="M1111.8,1107.2a11.9,11.9,0,0,1-2.1-5l-12.9-69.6a6.9,6.9,0,0,1,1.6-6.1h-40.6v49.1a32,32,0,0,0,32,32h22.3Z" fill="#a02127"/><polygon points="1132.8 1050.4 1121.5 1050.4 1133.9 1073.6 1135.6 1107.6 1135.6 1107.6 1132.8 1050.4" fill="#a02127"/><path d="M1452.6,1026.5a8.2,8.2,0,0,0-1.4,1.9l-5,9.3v-2.3a21,21,0,0,0-2-8.8Z" fill="#a02127"/><path d="M1449,1107.2a11.9,11.9,0,0,0,2.1-5l12.9-69.6a6.9,6.9,0,0,0-1.6-6.1H1503v49.1a32,32,0,0,1-32,32h-22.3Z" fill="#a02127"/><polygon points="1428 1050.4 1439.3 1050.4 1426.9 1073.6 1425.2 1107.6 1425.2 1107.6 1428 1050.4" fill="#a02127"/><path d="M1312.3,1030h-5.9a23.8,23.8,0,0,0-23.8,23.8h0a10.1,10.1,0,0,0,10.1,10.1h33.4a10.1,10.1,0,0,0,10.1-10.1h0A23.8,23.8,0,0,0,1312.3,1030Z" fill="#fdeec9"/><path d="M1367.5,1030h-5.9a23.8,23.8,0,0,0-23.8,23.8h0a10.1,10.1,0,0,0,10.1,10.1h33.4a10.1,10.1,0,0,0,10.1-10.1h0A23.8,23.8,0,0,0,1367.5,1030Z" fill="#fdeec9"/><path d="M1428.4,1043.1l-3.7,74.1c-.4,8.3-11.3,9.6-13.4,1.6l-18.3-68.4a11.9,11.9,0,0,1-.2-5.4c3.1-15.3,27.3-18.2,34.6-6A7.3,7.3,0,0,1,1428.4,1043.1Z" fill="#fdeec9"/><path d="M1426.9,1073.6l24.3-45.3c3.9-7.3,14.3-3.8,12.8,4.3l-12.9,69.6a11.9,11.9,0,0,1-2.1,5c-5.6,7.5-16.1,7.7-24,3.6Z" fill="#fdeec9"/><path d="M1431,1065.9l-4.1,7.7-1.8,37.2a23.6,23.6,0,0,0,3.7,1.5Z" fill="#e2d5ba"/><path d="M1129.8,1065.9l4.1,7.7,1.8,37.2a23.6,23.6,0,0,1-3.7,1.5Z" fill="#e2d5ba"/><path d="M1169.5,1101.9v31.8h0a23.8,23.8,0,0,0,23.8,23.4h5.9a23.8,23.8,0,0,0,20-10.8,23.8,23.8,0,0,0,23.7,21h15.4a23.8,23.8,0,0,0,22.2-15.2,23.8,23.8,0,0,0,22.2,15.2H1318a23.8,23.8,0,0,0,23.7-21,23.8,23.8,0,0,0,20,10.8h5.9a23.8,23.8,0,0,0,23.8-23.4h0v-31.8Z" fill="#fdeec9"/><circle cx="1515.7" cy="719.7" r="25.9" fill="#d99c2a"/><circle cx="1515.7" cy="719.7" r="21" fill="#fdeec9"/><circle cx="1591.2" cy="638.7" r="25.9" fill="#d99c2a"/><circle cx="1591.2" cy="638.7" r="21" fill="#fdeec9"/><circle cx="1701.7" cy="665.2" r="25.9" fill="#d99c2a"/><circle cx="1701.7" cy="665.2" r="21" fill="#fdeec9"/><path d="M1454.3,770l-5.7-17.4a4.2,4.2,0,0,0-5.3-2.7l-6.9,2.2v-7.2a4.2,4.2,0,0,0-4.2-4.2h-18.3a4.2,4.2,0,0,0-4.2,4.2v7.2l-6.9-2.2a4.2,4.2,0,0,0-5.3,2.7l-5.7,17.4a4.2,4.2,0,0,0,2.7,5.3l6.9,2.2-4.2,5.8a4.2,4.2,0,0,0,.9,5.9l14.8,10.8a4.2,4.2,0,0,0,5.9-.9l4.2-5.8,4.2,5.8a4.2,4.2,0,0,0,5.9.9l14.8-10.8a4.2,4.2,0,0,0,.9-5.9l-4.2-5.8,6.9-2.2A4.2,4.2,0,0,0,1454.3,770Z" fill="#fdeec9"/><circle cx="1045.2" cy="719.7" r="25.9" fill="#d99c2a"/><circle cx="1045.2" cy="719.7" r="21" fill="#fdeec9"/><ellipse cx="1280.4" cy="859.9" rx="7.1" ry="16.4" fill="#d99c2a"/><ellipse cx="1280.4" cy="859.9" rx="5.1" ry="13.3" fill="#fdeec9"/><circle cx="969.6" cy="638.7" r="25.9" fill="#d99c2a"/><circle cx="969.6" cy="638.7" r="21" fill="#fdeec9"/><circle cx="859.2" cy="665.2" r="25.9" fill="#d99c2a"/><circle cx="859.2" cy="665.2" r="21" fill="#fdeec9"/><path d="M1106.5,770l5.7-17.4a4.2,4.2,0,0,1,5.3-2.7l6.9,2.2v-7.2a4.2,4.2,0,0,1,4.2-4.2h18.3a4.2,4.2,0,0,1,4.2,4.2v7.2l6.9-2.2a4.2,4.2,0,0,1,5.3,2.7L1169,770a4.2,4.2,0,0,1-2.7,5.3l-6.9,2.2,4.2,5.8a4.2,4.2,0,0,1-.9,5.9l-14.8,10.8a4.2,4.2,0,0,1-5.9-.9l-4.2-5.8-4.2,5.8a4.2,4.2,0,0,1-5.9.9l-14.8-10.8a4.2,4.2,0,0,1-.9-5.9l4.2-5.8-6.9-2.2A4.2,4.2,0,0,1,1106.5,770Z" fill="#fdeec9"/><path d="M1442.1,763.8l-1.5-2a2.9,2.9,0,0,0-4.1-.6l-13.5,9.8h16.7a2.9,2.9,0,0,0,2.9-2.9v-2.5A2.9,2.9,0,0,0,1442.1,763.8Z" fill="#f2c333"/><path d="M1422.2,750.6l-2.4.8a2.9,2.9,0,0,0-1.9,3.7l5.2,15.9,5.2-15.9a2.9,2.9,0,0,0-1.9-3.7l-2.4-.8A2.9,2.9,0,0,0,1422.2,750.6Z" fill="#f2c333"/><path d="M1403.5,765.5V768a2.9,2.9,0,0,0,2.9,2.9h16.7l-13.5-9.8a2.9,2.9,0,0,0-4.1.6l-1.5,2A2.9,2.9,0,0,0,1403.5,765.5Z" fill="#f2c333"/><path d="M1411.9,787.9l2.4.8a2.9,2.9,0,0,0,3.7-1.9l5.2-15.9-13.5,9.8a2.9,2.9,0,0,0-.6,4.1l1.5,2A2.9,2.9,0,0,0,1411.9,787.9Z" fill="#f2c333"/><path d="M1435.8,786.8l1.5-2a2.9,2.9,0,0,0-.6-4.1l-13.5-9.8,5.2,15.9a2.9,2.9,0,0,0,3.7,1.9l2.4-.8A2.9,2.9,0,0,0,1435.8,786.8Z" fill="#f2c333"/><path d="M1564.4,858.9l8.1-16.4a4.2,4.2,0,0,0-1.9-5.7l-6.5-3.2,5-5.2a4.2,4.2,0,0,0-.1-6l-13.1-12.8a4.2,4.2,0,0,0-6,.1l-5,5.2-3.4-6.4a4.2,4.2,0,0,0-5.7-1.8l-16.2,8.5a4.2,4.2,0,0,0-1.8,5.7l3.4,6.4-7.1,1.2a4.2,4.2,0,0,0-3.5,4.9l3.1,18a4.2,4.2,0,0,0,4.9,3.5l7.1-1.2-1,7.2a4.2,4.2,0,0,0,3.6,4.8l18.1,2.6a4.2,4.2,0,0,0,4.8-3.6l1-7.2,6.5,3.2A4.2,4.2,0,0,0,1564.4,858.9Z" fill="#fdeec9"/><path d="M1559.9,845.9l.4-2.5a2.9,2.9,0,0,0-2.5-3.3l-16.5-2.4,12,11.6a2.9,2.9,0,0,0,4.1-.1l1.7-1.8A2.9,2.9,0,0,0,1559.9,845.9Z" fill="#f2c333"/><path d="M1554.8,822.6l-2.3-1.1a2.9,2.9,0,0,0-3.9,1.3l-7.4,15,14.8-7.8a2.9,2.9,0,0,0,1.2-3.9l-1.2-2.2A2.9,2.9,0,0,0,1554.8,822.6Z" fill="#f2c333"/><path d="M1531.1,820.2l-1.7,1.8a2.9,2.9,0,0,0,.1,4.1l12,11.6-2.8-16.4a2.9,2.9,0,0,0-3.4-2.4l-2.5.4A2.9,2.9,0,0,0,1531.1,820.2Z" fill="#f2c333"/><path d="M1521.5,842.1l1.2,2.2a2.9,2.9,0,0,0,3.9,1.2l14.8-7.8-16.5-2.4a2.9,2.9,0,0,0-3.3,2.5l-.4,2.5A2.9,2.9,0,0,0,1521.5,842.1Z" fill="#f2c333"/><path d="M1539.3,858l2.5-.4a2.9,2.9,0,0,0,2.4-3.4l-2.8-16.4-7.4,15a2.9,2.9,0,0,0,1.3,3.9l2.3,1.1A2.9,2.9,0,0,0,1539.3,858Z" fill="#f2c333"/><path d="M996.4,858.9l-8.1-16.4a4.2,4.2,0,0,1,1.9-5.7l6.5-3.2-5-5.2a4.2,4.2,0,0,1,.1-6l13.1-12.8a4.2,4.2,0,0,1,6,.1l5,5.2,3.4-6.4a4.2,4.2,0,0,1,5.7-1.8l16.2,8.5a4.2,4.2,0,0,1,1.8,5.7l-3.4,6.4,7.1,1.2a4.2,4.2,0,0,1,3.5,4.9l-3.1,18a4.2,4.2,0,0,1-4.9,3.5l-7.1-1.2,1,7.2a4.2,4.2,0,0,1-3.6,4.8l-18.1,2.6a4.2,4.2,0,0,1-4.8-3.6l-1-7.2-6.5,3.2A4.2,4.2,0,0,1,996.4,858.9Z" fill="#fdeec9"/><path d="M1000.9,845.9l-.4-2.5a2.9,2.9,0,0,1,2.5-3.3l16.5-2.4-12,11.6a2.9,2.9,0,0,1-4.1-.1l-1.7-1.8A2.9,2.9,0,0,1,1000.9,845.9Z" fill="#f2c333"/><path d="M1006,822.6l2.3-1.1a2.9,2.9,0,0,1,3.9,1.3l7.4,15-14.8-7.8a2.9,2.9,0,0,1-1.2-3.9l1.2-2.2A2.9,2.9,0,0,1,1006,822.6Z" fill="#f2c333"/><path d="M1029.8,820.2l1.7,1.8a2.9,2.9,0,0,1-.1,4.1l-12,11.6,2.8-16.4a2.9,2.9,0,0,1,3.4-2.4l2.5.4A2.9,2.9,0,0,1,1029.8,820.2Z" fill="#f2c333"/><path d="M1039.3,842.1l-1.2,2.2a2.9,2.9,0,0,1-3.9,1.2l-14.8-7.8,16.5-2.4a2.9,2.9,0,0,1,3.3,2.5l.4,2.5A2.9,2.9,0,0,1,1039.3,842.1Z" fill="#f2c333"/><path d="M1021.5,858l-2.5-.4a2.9,2.9,0,0,1-2.4-3.4l2.8-16.4,7.4,15a2.9,2.9,0,0,1-1.3,3.9l-2.3,1.1A2.9,2.9,0,0,1,1021.5,858Z" fill="#f2c333"/><path d="M1118.7,763.8l1.5-2a2.9,2.9,0,0,1,4.1-.6l13.5,9.8H1121a2.9,2.9,0,0,1-2.9-2.9v-2.5A2.9,2.9,0,0,1,1118.7,763.8Z" fill="#f2c333"/><path d="M1138.6,750.6l2.4.8a2.9,2.9,0,0,1,1.9,3.7l-5.2,15.9-5.2-15.9a2.9,2.9,0,0,1,1.9-3.7l2.4-.8A2.9,2.9,0,0,1,1138.6,750.6Z" fill="#f2c333"/><path d="M1157.3,765.5V768a2.9,2.9,0,0,1-2.9,2.9h-16.7l13.5-9.8a2.9,2.9,0,0,1,4.1.6l1.5,2A2.9,2.9,0,0,1,1157.3,765.5Z" fill="#f2c333"/><path d="M1148.9,787.9l-2.4.8a2.9,2.9,0,0,1-3.7-1.9l-5.2-15.9,13.5,9.8a2.9,2.9,0,0,1,.6,4.1l-1.5,2A2.9,2.9,0,0,1,1148.9,787.9Z" fill="#f2c333"/><path d="M1125.1,786.8l-1.5-2a2.9,2.9,0,0,1,.6-4.1l13.5-9.8-5.2,15.9a2.9,2.9,0,0,1-3.7,1.9l-2.4-.8A2.9,2.9,0,0,1,1125.1,786.8Z" fill="#f2c333"/><path d="M1127.7,1133.6h-28.1V1347a20.1,20.1,0,0,0,40.2,0V1138.1A21,21,0,0,1,1127.7,1133.6Z" fill="#262626"/><path d="M1146.9,1138.2h-6.7v224.2a20.1,20.1,0,1,0,40.2,0V1187.5A53.2,53.2,0,0,1,1146.9,1138.2Z" fill="#303030"/><path d="M1199.7,1191.3a53,53,0,0,1-19.7-3.8v190.1a20.1,20.1,0,0,0,20.1,20.1h0a20.1,20.1,0,0,0,20.1-20.1V1191.3Z" fill="#262626"/><path d="M1220.1,1191.3v201.6a20.1,20.1,0,0,0,20.1,20.1h0a20.1,20.1,0,0,0,20.1-20.1V1191.3Z" fill="#303030"/><path d="M1260.3,1191.3v216.9a20.1,20.1,0,0,0,40.2,0V1191.3Z" fill="#262626"/><path d="M1300.4,1191.3v201.6a20.1,20.1,0,0,0,40.2,0V1191.3Z" fill="#303030"/><path d="M1361.1,1191.3h-20.5v186.3a20.1,20.1,0,0,0,20.1,20.1h0a20.1,20.1,0,0,0,20.1-20.1V1187.6A53,53,0,0,1,1361.1,1191.3Z" fill="#262626"/><path d="M1420,1138.2h-5.7a53.2,53.2,0,0,1-33.5,49.4v174.8a20.1,20.1,0,0,0,20.1,20.1h0a20.1,20.1,0,0,0,20.1-20.1V1138.1Z" fill="#303030"/><path d="M1433.1,1133.6h0a21,21,0,0,1-12.2,4.6V1347a20.1,20.1,0,1,0,40.2,0V1133.6Z" fill="#262626"/><path id="_Path_98" data-name="&lt;Path&gt;" d="M2284.6,1301.7h0a19.9,19.9,0,0,0-19.9,19.9,19.9,19.9,0,0,0-39.7,0,19.9,19.9,0,1,0-39.7,0v5.7h119.2v-5.7A19.9,19.9,0,0,0,2284.6,1301.7Z" fill="#8bc53f"/></g></g></svg>